<?xml version="1.0" ?><!DOCTYPE svg  PUBLIC '-//W3C//DTD SVG 1.1//EN'  'http://www.w3.org/Graphics/SVG/1.1/DTD/svg11.dtd'><svg enable-background="new 0 0 500 500" height="500px" id="Layer_1" version="1.1" viewBox="0 0 500 500" width="500px" xml:space="preserve" xmlns="http://www.w3.org/2000/svg" xmlns:xlink="http://www.w3.org/1999/xlink"><path clip-rule="evenodd" d="M36.992,249.5c0,117.932,95.574,213.508,213.508,213.508  c117.932,0,213.508-95.576,213.508-213.508c0-117.93-95.576-213.51-213.508-213.51C132.566,35.991,36.992,131.571,36.992,249.5z   M82.418,249.5c0-10.905,0.993-21.534,3-31.799h43.607c-0.816,8.997-1.181,18.083-1.181,27.256c0,9.174,0.365,18.26,1.181,27.258  H83.875C82.872,264.762,82.418,257.224,82.418,249.5z M101.229,172.274c13.254-25.712,32.978-47.518,57.05-63.324  c-9.537,20.079-16.981,41.249-22.163,63.324H101.229z M226.42,83.145l1.366-0.182v89.312h-44.7  C192.082,139.748,206.892,109.585,226.42,83.145z M273.215,82.963l1.269,0.182c19.537,26.441,34.434,56.603,43.429,89.13h-44.697  V82.963z M342.621,108.951c24.084,15.806,43.887,37.611,57.15,63.324h-34.978C359.705,150.2,352.163,129.03,342.621,108.951z   M415.582,217.701c1.998,10.265,2.999,20.895,2.999,31.799c0,7.723-0.551,15.261-1.543,22.715h-44.977  c0.73-8.998,1.094-18.084,1.094-27.258c0-9.174-0.363-18.26-1.094-27.256H415.582z M404.226,317.643  c-14.267,32.073-38.251,58.876-68.229,76.586c12.725-23.892,22.437-49.595,28.798-76.586H404.226z M165.004,394.229  c-29.979-17.71-53.963-44.513-68.23-76.586h39.43C142.565,344.634,152.282,370.433,165.004,394.229z M174.64,217.701h53.146v54.515  H174.64c-0.914-8.998-1.366-18.084-1.366-27.258C173.274,235.784,173.727,226.698,174.64,217.701z M273.215,217.701h53.146  c0.913,8.997,1.367,18.083,1.367,27.256c0,9.174-0.454,18.26-1.367,27.258h-53.146V217.701z M183.086,317.643h44.7v90.854  C207.61,381.604,192.26,350.896,183.086,317.643z M273.215,317.643h44.697c-9.174,33.254-24.531,63.961-44.697,90.854V317.643z" fill="#010101" fill-rule="evenodd"/></svg>