<?xml version="1.0" ?><!DOCTYPE svg  PUBLIC '-//W3C//DTD SVG 1.1//EN'  'http://www.w3.org/Graphics/SVG/1.1/DTD/svg11.dtd'><svg enable-background="new 0 0 500 500" height="500px" id="Layer_1" version="1.1" viewBox="0 0 500 500" width="500px" xml:space="preserve" xmlns="http://www.w3.org/2000/svg" xmlns:xlink="http://www.w3.org/1999/xlink"><path clip-rule="evenodd" d="M168.231,298.832c-10.905-5.36-23.259-8.448-36.342-8.448  c-45.155,0-81.769,36.62-81.769,81.771c0,45.159,36.614,81.768,81.769,81.768c45.157,0,81.769-36.608,81.769-81.768v-181.71  c0-9.996,8.177-18.171,18.172-18.171h154.455c9.986,0,18.168,8.175,18.168,18.171v108.387c-10.904-5.36-23.263-8.448-36.341-8.448  c-45.159,0-81.771,36.62-81.771,81.771c0,45.159,36.612,81.768,81.771,81.768s81.768-36.608,81.768-81.768V65.066  c0-11.084-8.907-19.989-19.987-19.989H188.221c-11.086,0-19.989,8.904-19.989,19.989V298.832z" fill="#010101" fill-rule="evenodd"/></svg>