<?xml version="1.0" encoding="iso-8859-1"?>
<!-- Generator: Adobe Illustrator 18.0.0, SVG Export Plug-In . SVG Version: 6.00 Build 0)  -->
<!DOCTYPE svg PUBLIC "-//W3C//DTD SVG 1.1//EN" "http://www.w3.org/Graphics/SVG/1.1/DTD/svg11.dtd">
<svg version="1.1" id="Capa_1" xmlns="http://www.w3.org/2000/svg" xmlns:xlink="http://www.w3.org/1999/xlink" x="0px" y="0px"
	 viewBox="0 0 410 410" style="enable-background:new 0 0 410 410;" xml:space="preserve">
<g>
	<path d="M395,40h-20h-60c-8.284,0-15,6.715-15,15v270c0,3.978,1.58,7.793,4.394,10.606l30,30C337.322,368.535,341.161,370,345,370
		s7.678-1.465,10.606-4.394l30-30C388.42,332.793,390,328.978,390,325V182.265c1.565,0.555,3.244,0.872,5,0.872
		c8.284,0,15-6.716,15-15V55C410,46.716,403.284,40,395,40z M360,318.786l-15,15l-15-15V70h30V318.786z"/>
	<path d="M157.602,44.393C154.789,41.58,150.975,40,146.996,40H15C6.716,40,0,46.715,0,55v300c0,8.284,6.716,15,15,15h240
		c8.284,0,15-6.716,15-15V163c0-3.979-1.58-7.794-4.394-10.607L157.602,44.393z M161.996,91.212L218.786,148h-56.79V91.212z M30,340
		V70h101.996v93c0,8.284,6.716,15,15,15H240v162H30z"/>
	<path d="M185,280H85c-8.284,0-15,6.715-15,15c0,8.283,6.716,15,15,15h100c8.284,0,15-6.717,15-15C200,286.715,193.284,280,185,280z
		"/>
	<path d="M185,220H85c-8.284,0-15,6.716-15,15c0,8.283,6.716,15,15,15h100c8.284,0,15-6.717,15-15C200,226.716,193.284,220,185,220z
		"/>
</g>
<g>
</g>
<g>
</g>
<g>
</g>
<g>
</g>
<g>
</g>
<g>
</g>
<g>
</g>
<g>
</g>
<g>
</g>
<g>
</g>
<g>
</g>
<g>
</g>
<g>
</g>
<g>
</g>
<g>
</g>
</svg>
