<?xml version="1.0" encoding="iso-8859-1"?>
<!-- Generator: Adobe Illustrator 19.0.0, SVG Export Plug-In . SVG Version: 6.00 Build 0)  -->
<svg version="1.1" id="Layer_1" xmlns="http://www.w3.org/2000/svg" xmlns:xlink="http://www.w3.org/1999/xlink" x="0px" y="0px"
	 viewBox="0 0 512.001 512.001" style="enable-background:new 0 0 512.001 512.001;" xml:space="preserve">
<g>
	<g>
		<g>
			<rect x="165.443" y="268.53" width="63.003" height="15.832"/>
			<rect x="110.317" y="300.024" width="23.626" height="15.832"/>
			<rect x="165.443" y="189.771" width="31.502" height="15.832"/>
			<rect x="236.317" y="386.656" width="39.379" height="15.832"/>
			<rect x="189.065" y="410.288" width="23.626" height="15.832"/>
			<rect x="330.823" y="292.151" width="23.626" height="15.832"/>
			<path d="M409.539,193.333h-17.988c-3.275-9.31-12.153-16.005-22.569-16.005c-1.366,0-2.703,0.121-4.007,0.342
				c-33.103-45.623-85.991-72.714-142.494-72.714c-97.026,0-175.962,78.935-175.962,175.962c0,30.09,7.674,59.587,22.238,85.68
				c-24.572,30.566-43.62,57.812-55.197,78.996c-14.709,26.914-17.372,43.636-8.381,52.625c3.428,3.429,8.032,5.144,13.891,5.143
				c6.467,0,14.462-2.09,24.084-6.273c14.81-6.438,33.616-17.77,55.892-33.682c11.968-8.549,24.628-18.2,37.783-28.773
				c26.067,14.546,55.615,22.245,85.65,22.245c97.026,0,175.962-78.935,175.962-175.962c0-21.947-3.982-43.29-11.829-63.526
				c2.162-2.358,3.852-5.151,4.936-8.228h17.988v35.817H512v-86.71H409.539V193.333z M368.982,193.159
				c4.46,0,8.089,3.629,8.089,8.089c0,4.46-3.629,8.088-8.089,8.088s-8.088-3.629-8.088-8.088S364.522,193.159,368.982,193.159z
				 M330.866,163.067c7.348,6.756,14.109,14.237,20.171,22.388c-2.012,2.283-3.594,4.949-4.624,7.877h-15.547V163.067z
				 M89.845,450.524c-53.267,38.047-71.503,38.472-73.469,36.5c-1.013-1.012-2.1-9.723,11.078-33.839
				c10.597-19.389,27.869-44.267,50.181-72.336c12.132,17.545,27.411,32.787,44.945,44.91
				C111.22,434.784,100.262,443.083,89.845,450.524z M364.327,355.154h-80.754v15.832h71.236
				c-28.857,42.263-77.405,70.061-132.328,70.061c-25.217,0-50.05-5.959-72.363-17.267c32.946-27.336,68.508-59.912,103.954-95.359
				l63.968-65.038l-11.286-11.101l-63.923,64.991c-36.731,36.731-73.558,70.325-107.361,98.073
				c-9.271-6.016-17.897-12.969-25.727-20.733h16.322v-15.832H95.752c-3.807-4.921-7.347-10.056-10.566-15.404
				c-14.938-24.816-22.834-53.329-22.834-82.459c0-9.571,0.846-18.948,2.464-28.061h92.751v-15.832h-89.1
				c10.085-35.335,32.03-65.716,61.233-86.549h75.119v-15.832h-47.467c19.908-8.9,41.949-13.856,65.128-13.856
				c38.122,0,74.437,13.552,102.949,37.482h-97.026v86.71h102.462v-35.817h15.547c3.276,9.309,12.153,16.004,22.568,16.004
				c1.207,0,2.392-0.092,3.551-0.265c6.684,17.875,10.079,36.682,10.079,56.014C382.611,307.693,375.994,332.95,364.327,355.154z
				 M272.418,229.148h-28.182v-12.43l42.616-42.616h28.182v12.43L272.418,229.148z M315.034,208.924v20.225H294.81L315.034,208.924z
				 M244.236,194.327v-20.225h20.225L244.236,194.327z M496.169,229.148h-20.225l20.225-20.225V229.148z M425.371,174.102h20.225
				l-20.225,20.225V174.102z M425.371,216.718l42.616-42.616h28.182v12.43l-42.616,42.616h-28.182V216.718z"/>
			<rect x="133.938" y="355.151" width="31.501" height="15.832"/>
			<path d="M472.582,87.473c21.735,0,39.418-17.683,39.418-39.418c0-21.735-17.683-39.416-39.418-39.416
				c-21.735,0-39.418,17.682-39.418,39.417C433.164,69.791,450.847,87.473,472.582,87.473z M472.582,24.471
				c13.005,0,23.586,10.58,23.586,23.585c0,13.005-10.58,23.586-23.586,23.586s-23.586-10.58-23.586-23.586
				C448.996,35.051,459.577,24.471,472.582,24.471z"/>
		</g>
	</g>
</g>
<g>
</g>
<g>
</g>
<g>
</g>
<g>
</g>
<g>
</g>
<g>
</g>
<g>
</g>
<g>
</g>
<g>
</g>
<g>
</g>
<g>
</g>
<g>
</g>
<g>
</g>
<g>
</g>
<g>
</g>
</svg>
